<svg xmlns="http://www.w3.org/2000/svg" xmlns:xlink="http://www.w3.org/1999/xlink" width="800" zoomAndPan="magnify" viewBox="0 0 600 449.999984" height="600" preserveAspectRatio="xMidYMid meet" version="1.0"><defs><g/><clipPath id="69081945de"><path d="M 150 208.652344 L 198 208.652344 L 198 257.964844 L 150 257.964844 Z M 150 208.652344 " clip-rule="nonzero"/></clipPath></defs><g clip-path="url(#69081945de)"><path fill="#fcc751" d="M 184.773438 255.292969 C 181.296875 257.125 177.40625 257.960938 173.484375 257.867188 C 170.367188 257.941406 167.285156 257.195312 164.480469 255.84375 C 152.253906 249.832031 146.855469 233.847656 153.722656 221.898438 C 158.449219 212.773438 170.152344 209.257812 179.785156 208.796875 C 182.847656 208.457031 183.429688 212.929688 180.417969 213.410156 C 175.4375 213.664062 170.417969 214.566406 165.921875 216.792969 C 163.570312 217.972656 161.3125 219.382812 159.605469 221.410156 C 157.0625 224.546875 155.644531 228.53125 155.324219 232.539062 C 155.039062 241.003906 160.316406 249.65625 168.457031 252.453125 C 170.820312 253.289062 173.34375 253.289062 175.816406 253.144531 C 179.019531 252.949219 182.070312 251.652344 184.738281 249.917969 C 187.457031 248.074219 189.546875 245.34375 190.90625 242.371094 C 192.175781 239.214844 192.617188 235.6875 192.183594 232.316406 C 191.3125 225.683594 185.761719 218.210938 178.648438 217.890625 C 177.527344 217.84375 176.398438 217.785156 175.292969 217.992188 C 174.765625 218.089844 174.238281 218.300781 173.695312 218.199219 C 172.222656 217.984375 171.828125 216.164062 172.855469 215.195312 C 175.015625 213.269531 179.519531 213.484375 182.214844 214.019531 C 188.730469 215.613281 193.507812 221.34375 195.789062 227.421875 C 199.355469 238.019531 194.949219 250.246094 184.773438 255.292969 Z M 184.773438 255.292969 " fill-opacity="1" fill-rule="nonzero"/></g><path fill="#fcc751" d="M 182.496094 229.039062 C 183.605469 231.367188 184.234375 233.863281 184.257812 236.4375 C 184.433594 238.8125 184.191406 241.300781 183.160156 243.480469 C 181.632812 247.066406 177.332031 249.351562 173.445312 248.421875 C 171.382812 247.871094 169.609375 246.570312 168.433594 244.832031 C 167.300781 243.816406 166.441406 242.550781 165.691406 241.242188 C 163.871094 238.109375 162.839844 234.445312 163.316406 230.828125 C 163.816406 226.148438 166.972656 221.511719 172.117188 221.207031 C 172.421875 221.171875 172.722656 221.152344 173.019531 221.152344 C 177.480469 221.152344 180.96875 225.203125 182.496094 229.039062 Z M 168.757812 229.957031 C 167.9375 232.707031 168.421875 235.738281 169.847656 238.21875 C 169.839844 238.238281 169.839844 238.257812 169.84375 238.28125 C 169.859375 238.34375 169.890625 238.402344 169.921875 238.457031 C 169.941406 238.496094 169.964844 238.535156 169.984375 238.570312 C 170.019531 238.632812 170.054688 238.691406 170.089844 238.753906 C 170.171875 238.890625 170.253906 239.027344 170.339844 239.160156 C 170.386719 239.230469 170.429688 239.300781 170.476562 239.367188 C 170.535156 239.445312 170.589844 239.523438 170.644531 239.601562 C 170.726562 239.722656 170.816406 239.835938 170.90625 239.953125 C 171.011719 240.082031 171.113281 240.214844 171.21875 240.339844 C 171.277344 240.421875 171.335938 240.5 171.394531 240.578125 C 171.503906 240.71875 171.609375 240.859375 171.722656 241 C 171.765625 241.058594 171.8125 241.117188 171.863281 241.171875 C 171.902344 241.222656 171.945312 241.277344 171.988281 241.324219 C 172.050781 241.398438 172.117188 241.472656 172.179688 241.542969 C 172.226562 241.601562 172.28125 241.652344 172.332031 241.707031 C 172.378906 241.753906 172.421875 241.804688 172.46875 241.851562 C 172.539062 241.914062 172.609375 241.980469 172.675781 242.046875 C 172.699219 242.066406 172.722656 242.085938 172.746094 242.101562 C 172.789062 242.136719 172.828125 242.171875 172.871094 242.203125 C 172.933594 242.257812 173.003906 242.304688 173.070312 242.355469 C 173.074219 242.359375 173.078125 242.363281 173.085938 242.367188 C 173.339844 242.675781 173.625 242.953125 174.015625 243.109375 C 175.144531 243.851562 176.5 243.386719 177.503906 242.648438 C 178.664062 241.535156 178.957031 239.882812 179.082031 238.359375 C 179.15625 235.890625 178.863281 233.398438 177.734375 231.160156 C 177.292969 230.128906 176.855469 229.078125 176.074219 228.246094 C 175.296875 227.453125 174.503906 226.492188 173.339844 226.277344 C 170.785156 226.113281 169.488281 227.769531 168.757812 229.957031 Z M 168.757812 229.957031 " fill-opacity="1" fill-rule="nonzero"/><g fill="#000000" fill-opacity="1"><g transform="translate(202.233834, 252.238706)"><g><path d="M 12.09375 0.40625 C 8.195312 0.40625 5.378906 -0.5625 3.640625 -2.5 C 1.910156 -4.4375 1.046875 -7.550781 1.046875 -11.84375 L 1.046875 -16.046875 L 9.5 -16.046875 L 9.5 -10.703125 C 9.5 -8.566406 10.179688 -7.5 11.546875 -7.5 C 12.316406 -7.5 12.847656 -7.722656 13.140625 -8.171875 C 13.441406 -8.617188 13.59375 -9.378906 13.59375 -10.453125 C 13.59375 -11.847656 13.425781 -13.003906 13.09375 -13.921875 C 12.757812 -14.835938 12.332031 -15.601562 11.8125 -16.21875 C 11.300781 -16.84375 10.378906 -17.800781 9.046875 -19.09375 L 5.34375 -22.796875 C 2.476562 -25.597656 1.046875 -28.695312 1.046875 -32.09375 C 1.046875 -35.757812 1.882812 -38.550781 3.5625 -40.46875 C 5.25 -42.382812 7.710938 -43.34375 10.953125 -43.34375 C 14.816406 -43.34375 17.597656 -42.316406 19.296875 -40.265625 C 20.992188 -38.222656 21.84375 -35.019531 21.84375 -30.65625 L 13.09375 -30.65625 L 13.046875 -33.59375 C 13.046875 -34.164062 12.882812 -34.617188 12.5625 -34.953125 C 12.25 -35.285156 11.8125 -35.453125 11.25 -35.453125 C 10.582031 -35.453125 10.082031 -35.265625 9.75 -34.890625 C 9.414062 -34.523438 9.25 -34.03125 9.25 -33.40625 C 9.25 -32 10.050781 -30.546875 11.65625 -29.046875 L 16.65625 -24.25 C 17.820312 -23.113281 18.785156 -22.035156 19.546875 -21.015625 C 20.316406 -20.003906 20.929688 -18.804688 21.390625 -17.421875 C 21.859375 -16.035156 22.09375 -14.394531 22.09375 -12.5 C 22.09375 -8.269531 21.316406 -5.0625 19.765625 -2.875 C 18.222656 -0.6875 15.664062 0.40625 12.09375 0.40625 Z M 12.09375 0.40625 "/></g></g></g><g fill="#000000" fill-opacity="1"><g transform="translate(223.280267, 252.238706)"><g><path d="M 1.75 -36.59375 L 10.65625 -36.59375 L 10.65625 -34.65625 C 11.914062 -36.21875 13.664062 -37 15.90625 -37 C 18.738281 -37 20.710938 -36.046875 21.828125 -34.140625 C 22.941406 -32.242188 23.5 -29.613281 23.5 -26.25 L 23.5 -12.703125 C 23.5 -9.835938 23.332031 -7.492188 23 -5.671875 C 22.664062 -3.859375 21.929688 -2.390625 20.796875 -1.265625 C 19.660156 -0.148438 17.945312 0.40625 15.65625 0.40625 C 13.445312 0.40625 11.78125 -0.210938 10.65625 -1.453125 L 10.65625 7.296875 L 1.75 7.296875 Z M 12.75 -6.40625 C 13.550781 -6.40625 14.066406 -6.769531 14.296875 -7.5 C 14.535156 -8.226562 14.65625 -9.296875 14.65625 -10.703125 L 14.65625 -26.25 C 14.65625 -27.519531 14.535156 -28.488281 14.296875 -29.15625 C 14.066406 -29.820312 13.535156 -30.15625 12.703125 -30.15625 C 11.335938 -30.15625 10.65625 -28.882812 10.65625 -26.34375 L 10.65625 -10.296875 C 10.65625 -9.066406 10.796875 -8.109375 11.078125 -7.421875 C 11.359375 -6.742188 11.914062 -6.40625 12.75 -6.40625 Z M 12.75 -6.40625 "/></g></g></g><g fill="#000000" fill-opacity="1"><g transform="translate(246.276395, 252.238706)"><g><path d="M 8.40625 0.40625 C 5.570312 0.40625 3.628906 -0.535156 2.578125 -2.421875 C 1.523438 -4.304688 1 -7 1 -10.5 C 1 -13.363281 1.375 -15.5625 2.125 -17.09375 C 2.875 -18.632812 3.914062 -19.757812 5.25 -20.46875 C 6.582031 -21.1875 8.613281 -21.976562 11.34375 -22.84375 L 13.75 -23.65625 L 13.75 -27.40625 C 13.75 -28.363281 13.554688 -29.101562 13.171875 -29.625 C 12.785156 -30.144531 12.328125 -30.40625 11.796875 -30.40625 C 11.328125 -30.40625 10.914062 -30.1875 10.5625 -29.75 C 10.21875 -29.3125 10.046875 -28.726562 10.046875 -28 L 10.046875 -25.796875 L 1.546875 -25.796875 L 1.546875 -27 C 1.546875 -30.601562 2.382812 -33.171875 4.0625 -34.703125 C 5.75 -36.234375 8.492188 -37 12.296875 -37 C 15.328125 -37 17.789062 -36.207031 19.6875 -34.625 C 21.59375 -33.039062 22.546875 -30.800781 22.546875 -27.90625 L 22.546875 0 L 13.84375 0 L 13.84375 -4.34375 C 13.414062 -2.84375 12.722656 -1.675781 11.765625 -0.84375 C 10.816406 -0.0078125 9.695312 0.40625 8.40625 0.40625 Z M 11.84375 -6.40625 C 12.507812 -6.40625 12.984375 -6.675781 13.265625 -7.21875 C 13.554688 -7.769531 13.703125 -8.445312 13.703125 -9.25 L 13.703125 -19.453125 C 12.398438 -18.953125 11.441406 -18.316406 10.828125 -17.546875 C 10.210938 -16.785156 9.90625 -15.71875 9.90625 -14.34375 L 9.90625 -9.65625 C 9.90625 -7.488281 10.550781 -6.40625 11.84375 -6.40625 Z M 11.84375 -6.40625 "/></g></g></g><g fill="#000000" fill-opacity="1"><g transform="translate(268.422662, 252.238706)"><g><path d="M 12.75 0.40625 C 8.75 0.40625 5.863281 -0.609375 4.09375 -2.640625 C 2.332031 -4.679688 1.453125 -7.800781 1.453125 -12 L 1.453125 -23.296875 C 1.453125 -26.460938 1.789062 -29.035156 2.46875 -31.015625 C 3.15625 -33.003906 4.304688 -34.5 5.921875 -35.5 C 7.535156 -36.5 9.78125 -37 12.65625 -37 C 15.78125 -37 18.328125 -36.179688 20.296875 -34.546875 C 22.265625 -32.910156 23.25 -30.628906 23.25 -27.703125 L 23.25 -22.09375 L 14.34375 -22.09375 L 14.34375 -27.25 C 14.34375 -28.21875 14.207031 -28.957031 13.9375 -29.46875 C 13.675781 -29.988281 13.164062 -30.25 12.40625 -30.25 C 10.96875 -30.25 10.25 -29.234375 10.25 -27.203125 L 10.25 -9.453125 C 10.25 -8.617188 10.421875 -7.910156 10.765625 -7.328125 C 11.117188 -6.742188 11.644531 -6.453125 12.34375 -6.453125 C 13.050781 -6.453125 13.578125 -6.734375 13.921875 -7.296875 C 14.273438 -7.867188 14.4375 -8.601562 14.40625 -9.5 L 14.34375 -15.65625 L 23.25 -15.65625 L 23.25 -9.25 C 23.25 -6.25 22.273438 -3.890625 20.328125 -2.171875 C 18.378906 -0.453125 15.851562 0.40625 12.75 0.40625 Z M 12.75 0.40625 "/></g></g></g><g fill="#000000" fill-opacity="1"><g transform="translate(290.968866, 252.238706)"><g><path d="M 12 0.40625 C 8.226562 0.40625 5.523438 -0.625 3.890625 -2.6875 C 2.265625 -4.757812 1.453125 -7.847656 1.453125 -11.953125 L 1.453125 -26.65625 C 1.453125 -30.019531 2.414062 -32.582031 4.34375 -34.34375 C 6.28125 -36.113281 8.984375 -37 12.453125 -37 C 19.484375 -37 23 -33.550781 23 -26.65625 L 23 -24 C 23 -21.332031 22.96875 -19.164062 22.90625 -17.5 L 10.203125 -17.5 L 10.203125 -10.40625 C 10.203125 -9.132812 10.332031 -8.140625 10.59375 -7.421875 C 10.863281 -6.703125 11.429688 -6.34375 12.296875 -6.34375 C 12.960938 -6.34375 13.4375 -6.539062 13.71875 -6.9375 C 14.007812 -7.34375 14.175781 -7.800781 14.21875 -8.3125 C 14.269531 -8.832031 14.296875 -9.59375 14.296875 -10.59375 L 14.296875 -14.15625 L 23 -14.15625 L 23 -12.046875 C 23 -7.785156 22.171875 -4.644531 20.515625 -2.625 C 18.867188 -0.601562 16.03125 0.40625 12 0.40625 Z M 14.296875 -21.84375 L 14.296875 -26.546875 C 14.296875 -29.179688 13.644531 -30.5 12.34375 -30.5 C 10.882812 -30.5 10.15625 -29.179688 10.15625 -26.546875 L 10.15625 -21.84375 Z M 14.296875 -21.84375 "/></g></g></g><g fill="#000000" fill-opacity="1"><g transform="translate(313.365089, 252.238706)"><g><path d="M 1.75 -43.203125 L 10.75 -43.203125 L 10.75 -33 C 11.6875 -35.664062 13.46875 -37 16.09375 -37 C 18.5625 -37 20.425781 -36.210938 21.6875 -34.640625 C 22.957031 -33.078125 23.59375 -30.929688 23.59375 -28.203125 L 23.59375 0 L 14.84375 0 L 14.84375 -27.65625 C 14.84375 -28.445312 14.660156 -29.09375 14.296875 -29.59375 C 13.929688 -30.09375 13.398438 -30.34375 12.703125 -30.34375 C 12.097656 -30.34375 11.617188 -30.082031 11.265625 -29.5625 C 10.921875 -29.050781 10.75 -28.429688 10.75 -27.703125 L 10.75 0 L 1.75 0 Z M 1.75 -43.203125 "/></g></g></g><g fill="#000000" fill-opacity="1"><g transform="translate(336.611173, 252.238706)"><g><path d="M 8.796875 0.40625 C 6.066406 0.40625 4.191406 -0.410156 3.171875 -2.046875 C 2.160156 -3.679688 1.65625 -6.113281 1.65625 -9.34375 L 1.65625 -36.59375 L 10.453125 -36.59375 L 10.453125 -11.09375 C 10.453125 -10.863281 10.453125 -10.238281 10.453125 -9.21875 C 10.453125 -8.207031 10.609375 -7.492188 10.921875 -7.078125 C 11.242188 -6.660156 11.738281 -6.453125 12.40625 -6.453125 C 13.300781 -6.453125 13.863281 -6.828125 14.09375 -7.578125 C 14.332031 -8.328125 14.453125 -9.398438 14.453125 -10.796875 L 14.453125 -11.09375 L 14.5 -36.59375 L 23.203125 -36.59375 L 23.203125 0 L 14.453125 0 L 14.453125 -3.90625 C 13.847656 -2.363281 13.144531 -1.257812 12.34375 -0.59375 C 11.550781 0.0703125 10.367188 0.40625 8.796875 0.40625 Z M 8.796875 0.40625 "/></g></g></g><g fill="#000000" fill-opacity="1"><g transform="translate(359.557308, 252.238706)"><g><path d="M 1.75 -36.59375 L 10.5 -36.59375 L 10.5 -31.953125 C 10.863281 -33.453125 11.492188 -34.664062 12.390625 -35.59375 C 13.296875 -36.53125 14.5 -37 16 -37 C 18.46875 -37 20.289062 -36.238281 21.46875 -34.71875 C 22.65625 -33.207031 23.25 -31.050781 23.25 -28.25 L 23.25 0 L 14.65625 0 L 14.65625 -27.34375 C 14.65625 -28.144531 14.492188 -28.828125 14.171875 -29.390625 C 13.859375 -29.960938 13.367188 -30.25 12.703125 -30.25 C 11.796875 -30.25 11.203125 -29.835938 10.921875 -29.015625 C 10.640625 -28.203125 10.5 -27.113281 10.5 -25.75 L 10.5 0 L 1.75 0 Z M 1.75 -36.59375 "/></g></g></g><g fill="#000000" fill-opacity="1"><g transform="translate(382.503443, 252.238706)"><g><path d="M 9.296875 0.40625 C 6.992188 0.40625 5.410156 -0.078125 4.546875 -1.046875 C 3.679688 -2.015625 3.25 -3.566406 3.25 -5.703125 L 3.25 -28.546875 L 0.796875 -28.546875 L 0.796875 -35.203125 L 3.25 -35.203125 L 3.25 -42.953125 L 11.75 -42.953125 L 11.75 -35.203125 L 14.25 -35.203125 L 14.25 -28.546875 L 11.75 -28.546875 L 11.75 -8 C 11.75 -7.363281 11.796875 -6.894531 11.890625 -6.59375 C 11.992188 -6.300781 12.265625 -6.15625 12.703125 -6.15625 C 13.035156 -6.15625 13.347656 -6.171875 13.640625 -6.203125 C 13.941406 -6.234375 14.144531 -6.25 14.25 -6.25 L 14.25 -0.25 C 13.75 -0.113281 13.023438 0.0234375 12.078125 0.171875 C 11.128906 0.328125 10.203125 0.40625 9.296875 0.40625 Z M 9.296875 0.40625 "/></g></g></g></svg>