<svg xmlns="http://www.w3.org/2000/svg" xmlns:xlink="http://www.w3.org/1999/xlink" width="214" zoomAndPan="magnify" viewBox="0 0 160.5 37.5" height="50" preserveAspectRatio="xMidYMid meet" version="1.0"><defs><g/></defs><path fill="#fcc751" d="M 11.320312 4.8125 C 13.730469 3.550781 16.429688 2.972656 19.144531 3.039062 C 21.304688 2.988281 23.441406 3.503906 25.382812 4.433594 C 33.855469 8.582031 37.597656 19.605469 32.839844 27.851562 C 29.5625 34.144531 21.453125 36.566406 14.777344 36.886719 C 12.65625 37.121094 12.253906 34.035156 14.339844 33.703125 C 17.792969 33.527344 21.269531 32.90625 24.386719 31.371094 C 26.011719 30.558594 27.578125 29.585938 28.761719 28.1875 C 30.523438 26.023438 31.507812 23.273438 31.726562 20.507812 C 31.925781 14.671875 28.269531 8.703125 22.628906 6.773438 C 20.992188 6.195312 19.242188 6.195312 17.53125 6.296875 C 15.308594 6.429688 13.195312 7.324219 11.347656 8.519531 C 9.460938 9.792969 8.011719 11.675781 7.074219 13.730469 C 6.191406 15.90625 5.886719 18.335938 6.1875 20.664062 C 6.789062 25.238281 10.636719 30.390625 15.566406 30.613281 C 16.34375 30.644531 17.125 30.6875 17.890625 30.542969 C 18.257812 30.476562 18.625 30.328125 19 30.402344 C 20.015625 30.546875 20.292969 31.804688 19.578125 32.472656 C 18.082031 33.800781 14.960938 33.652344 13.09375 33.28125 C 8.578125 32.183594 5.269531 28.230469 3.6875 24.039062 C 1.21875 16.726562 4.273438 8.296875 11.320312 4.8125 Z M 11.320312 4.8125 " fill-opacity="1" fill-rule="nonzero"/><path fill="#fcc751" d="M 12.902344 22.921875 C 12.132812 21.320312 11.695312 19.59375 11.679688 17.820312 C 11.558594 16.183594 11.722656 14.464844 12.441406 12.960938 C 13.5 10.488281 16.476562 8.910156 19.171875 9.554688 C 20.601562 9.933594 21.828125 10.832031 22.644531 12.03125 C 23.429688 12.730469 24.023438 13.605469 24.542969 14.503906 C 25.808594 16.664062 26.519531 19.195312 26.191406 21.6875 C 25.84375 24.917969 23.65625 28.117188 20.09375 28.324219 C 19.882812 28.351562 19.671875 28.363281 19.464844 28.363281 C 16.375 28.363281 13.957031 25.570312 12.902344 22.921875 Z M 22.421875 22.289062 C 22.988281 20.394531 22.652344 18.300781 21.664062 16.589844 C 21.667969 16.578125 21.671875 16.5625 21.664062 16.550781 C 21.65625 16.503906 21.632812 16.464844 21.613281 16.425781 C 21.597656 16.398438 21.582031 16.375 21.570312 16.347656 C 21.546875 16.304688 21.523438 16.265625 21.496094 16.222656 C 21.441406 16.128906 21.382812 16.035156 21.320312 15.941406 C 21.289062 15.894531 21.261719 15.847656 21.226562 15.800781 C 21.1875 15.746094 21.152344 15.691406 21.113281 15.636719 C 21.054688 15.554688 20.992188 15.476562 20.929688 15.394531 C 20.859375 15.304688 20.789062 15.214844 20.714844 15.128906 C 20.675781 15.074219 20.632812 15.019531 20.59375 14.964844 C 20.519531 14.867188 20.441406 14.769531 20.367188 14.671875 C 20.335938 14.632812 20.300781 14.59375 20.269531 14.554688 C 20.238281 14.519531 20.210938 14.480469 20.179688 14.449219 C 20.136719 14.398438 20.09375 14.347656 20.050781 14.296875 C 20.015625 14.257812 19.980469 14.222656 19.941406 14.1875 C 19.910156 14.152344 19.878906 14.117188 19.847656 14.085938 C 19.800781 14.042969 19.753906 13.996094 19.703125 13.953125 C 19.6875 13.9375 19.671875 13.925781 19.65625 13.910156 C 19.625 13.886719 19.597656 13.867188 19.570312 13.84375 C 19.527344 13.804688 19.476562 13.773438 19.433594 13.738281 C 19.429688 13.738281 19.425781 13.734375 19.421875 13.730469 C 19.246094 13.515625 19.046875 13.328125 18.777344 13.21875 C 17.996094 12.707031 17.054688 13.027344 16.359375 13.535156 C 15.554688 14.304688 15.351562 15.441406 15.265625 16.496094 C 15.214844 18.199219 15.417969 19.917969 16.199219 21.460938 C 16.503906 22.171875 16.808594 22.898438 17.351562 23.46875 C 17.886719 24.019531 18.4375 24.679688 19.242188 24.828125 C 21.015625 24.941406 21.914062 23.796875 22.421875 22.289062 Z M 22.421875 22.289062 " fill-opacity="1" fill-rule="nonzero"/><g fill="#000000" fill-opacity="1"><g transform="translate(36.839339, 30.985569)"><g><path d="M 7.484375 0.25 C 5.066406 0.25 3.320312 -0.347656 2.25 -1.546875 C 1.1875 -2.742188 0.65625 -4.671875 0.65625 -7.328125 L 0.65625 -9.9375 L 5.875 -9.9375 L 5.875 -6.625 C 5.875 -5.300781 6.296875 -4.640625 7.140625 -4.640625 C 7.617188 -4.640625 7.953125 -4.773438 8.140625 -5.046875 C 8.328125 -5.328125 8.421875 -5.800781 8.421875 -6.46875 C 8.421875 -7.332031 8.316406 -8.046875 8.109375 -8.609375 C 7.898438 -9.179688 7.632812 -9.65625 7.3125 -10.03125 C 7 -10.414062 6.425781 -11.007812 5.59375 -11.8125 L 3.3125 -14.109375 C 1.539062 -15.835938 0.65625 -17.753906 0.65625 -19.859375 C 0.65625 -22.128906 1.175781 -23.859375 2.21875 -25.046875 C 3.257812 -26.234375 4.78125 -26.828125 6.78125 -26.828125 C 9.164062 -26.828125 10.882812 -26.191406 11.9375 -24.921875 C 12.988281 -23.648438 13.515625 -21.664062 13.515625 -18.96875 L 8.109375 -18.96875 L 8.078125 -20.796875 C 8.078125 -21.140625 7.976562 -21.414062 7.78125 -21.625 C 7.582031 -21.832031 7.304688 -21.9375 6.953125 -21.9375 C 6.546875 -21.9375 6.238281 -21.820312 6.03125 -21.59375 C 5.820312 -21.363281 5.71875 -21.054688 5.71875 -20.671875 C 5.71875 -19.796875 6.210938 -18.894531 7.203125 -17.96875 L 10.296875 -15 C 11.023438 -14.300781 11.625 -13.632812 12.09375 -13 C 12.570312 -12.375 12.953125 -11.632812 13.234375 -10.78125 C 13.523438 -9.925781 13.671875 -8.910156 13.671875 -7.734375 C 13.671875 -5.117188 13.191406 -3.132812 12.234375 -1.78125 C 11.273438 -0.425781 9.691406 0.25 7.484375 0.25 Z M 7.484375 0.25 "/></g></g></g><g fill="#000000" fill-opacity="1"><g transform="translate(49.860719, 30.985569)"><g><path d="M 1.078125 -22.640625 L 6.59375 -22.640625 L 6.59375 -21.4375 C 7.375 -22.40625 8.457031 -22.890625 9.84375 -22.890625 C 11.59375 -22.890625 12.8125 -22.300781 13.5 -21.125 C 14.195312 -19.945312 14.546875 -18.316406 14.546875 -16.234375 L 14.546875 -7.859375 C 14.546875 -6.085938 14.441406 -4.640625 14.234375 -3.515625 C 14.023438 -2.390625 13.566406 -1.476562 12.859375 -0.78125 C 12.160156 -0.09375 11.101562 0.25 9.6875 0.25 C 8.320312 0.25 7.289062 -0.128906 6.59375 -0.890625 L 6.59375 4.515625 L 1.078125 4.515625 Z M 7.890625 -3.953125 C 8.378906 -3.953125 8.695312 -4.179688 8.84375 -4.640625 C 8.988281 -5.097656 9.0625 -5.757812 9.0625 -6.625 L 9.0625 -16.234375 C 9.0625 -17.023438 8.988281 -17.625 8.84375 -18.03125 C 8.695312 -18.445312 8.367188 -18.65625 7.859375 -18.65625 C 7.015625 -18.65625 6.59375 -17.867188 6.59375 -16.296875 L 6.59375 -6.375 C 6.59375 -5.613281 6.675781 -5.019531 6.84375 -4.59375 C 7.019531 -4.164062 7.367188 -3.953125 7.890625 -3.953125 Z M 7.890625 -3.953125 "/></g></g></g><g fill="#000000" fill-opacity="1"><g transform="translate(64.088371, 30.985569)"><g><path d="M 5.203125 0.25 C 3.441406 0.25 2.238281 -0.332031 1.59375 -1.5 C 0.945312 -2.664062 0.625 -4.332031 0.625 -6.5 C 0.625 -8.269531 0.851562 -9.628906 1.3125 -10.578125 C 1.78125 -11.523438 2.425781 -12.21875 3.25 -12.65625 C 4.070312 -13.101562 5.328125 -13.597656 7.015625 -14.140625 L 8.5 -14.640625 L 8.5 -16.953125 C 8.5 -17.546875 8.378906 -18.003906 8.140625 -18.328125 C 7.910156 -18.648438 7.628906 -18.8125 7.296875 -18.8125 C 7.015625 -18.8125 6.765625 -18.675781 6.546875 -18.40625 C 6.328125 -18.132812 6.21875 -17.773438 6.21875 -17.328125 L 6.21875 -15.96875 L 0.953125 -15.96875 L 0.953125 -16.703125 C 0.953125 -18.929688 1.472656 -20.519531 2.515625 -21.46875 C 3.554688 -22.414062 5.253906 -22.890625 7.609375 -22.890625 C 9.484375 -22.890625 11.007812 -22.398438 12.1875 -21.421875 C 13.363281 -20.441406 13.953125 -19.054688 13.953125 -17.265625 L 13.953125 0 L 8.5625 0 L 8.5625 -2.6875 C 8.300781 -1.757812 7.875 -1.035156 7.28125 -0.515625 C 6.695312 -0.00390625 6.003906 0.25 5.203125 0.25 Z M 7.328125 -3.953125 C 7.742188 -3.953125 8.039062 -4.125 8.21875 -4.46875 C 8.394531 -4.8125 8.484375 -5.226562 8.484375 -5.71875 L 8.484375 -12.03125 C 7.671875 -11.726562 7.070312 -11.335938 6.6875 -10.859375 C 6.3125 -10.378906 6.125 -9.71875 6.125 -8.875 L 6.125 -5.96875 C 6.125 -4.625 6.523438 -3.953125 7.328125 -3.953125 Z M 7.328125 -3.953125 "/></g></g></g><g fill="#000000" fill-opacity="1"><g transform="translate(77.790216, 30.985569)"><g><path d="M 7.890625 0.25 C 5.410156 0.25 3.625 -0.378906 2.53125 -1.640625 C 1.4375 -2.898438 0.890625 -4.828125 0.890625 -7.421875 L 0.890625 -14.421875 C 0.890625 -16.378906 1.101562 -17.96875 1.53125 -19.1875 C 1.957031 -20.414062 2.671875 -21.335938 3.671875 -21.953125 C 4.671875 -22.578125 6.054688 -22.890625 7.828125 -22.890625 C 9.765625 -22.890625 11.34375 -22.382812 12.5625 -21.375 C 13.78125 -20.363281 14.390625 -18.953125 14.390625 -17.140625 L 14.390625 -13.671875 L 8.875 -13.671875 L 8.875 -16.859375 C 8.875 -17.460938 8.789062 -17.921875 8.625 -18.234375 C 8.46875 -18.554688 8.148438 -18.71875 7.671875 -18.71875 C 6.785156 -18.71875 6.34375 -18.085938 6.34375 -16.828125 L 6.34375 -5.84375 C 6.34375 -5.332031 6.445312 -4.894531 6.65625 -4.53125 C 6.875 -4.164062 7.203125 -3.984375 7.640625 -3.984375 C 8.078125 -3.984375 8.398438 -4.160156 8.609375 -4.515625 C 8.828125 -4.867188 8.925781 -5.320312 8.90625 -5.875 L 8.875 -9.6875 L 14.390625 -9.6875 L 14.390625 -5.71875 C 14.390625 -3.863281 13.785156 -2.40625 12.578125 -1.34375 C 11.367188 -0.28125 9.804688 0.25 7.890625 0.25 Z M 7.890625 0.25 "/></g></g></g><g fill="#000000" fill-opacity="1"><g transform="translate(91.739501, 30.985569)"><g><path d="M 7.421875 0.25 C 5.085938 0.25 3.414062 -0.390625 2.40625 -1.671875 C 1.394531 -2.953125 0.890625 -4.859375 0.890625 -7.390625 L 0.890625 -16.484375 C 0.890625 -18.566406 1.488281 -20.15625 2.6875 -21.25 C 3.882812 -22.34375 5.554688 -22.890625 7.703125 -22.890625 C 12.054688 -22.890625 14.234375 -20.753906 14.234375 -16.484375 L 14.234375 -14.84375 C 14.234375 -13.195312 14.210938 -11.859375 14.171875 -10.828125 L 6.3125 -10.828125 L 6.3125 -6.4375 C 6.3125 -5.65625 6.394531 -5.039062 6.5625 -4.59375 C 6.726562 -4.144531 7.078125 -3.921875 7.609375 -3.921875 C 8.023438 -3.921875 8.316406 -4.046875 8.484375 -4.296875 C 8.660156 -4.546875 8.765625 -4.828125 8.796875 -5.140625 C 8.828125 -5.460938 8.84375 -5.9375 8.84375 -6.5625 L 8.84375 -8.75 L 14.234375 -8.75 L 14.234375 -7.453125 C 14.234375 -4.816406 13.722656 -2.875 12.703125 -1.625 C 11.679688 -0.375 9.921875 0.25 7.421875 0.25 Z M 8.84375 -13.515625 L 8.84375 -16.421875 C 8.84375 -18.054688 8.441406 -18.875 7.640625 -18.875 C 6.734375 -18.875 6.28125 -18.054688 6.28125 -16.421875 L 6.28125 -13.515625 Z M 8.84375 -13.515625 "/></g></g></g><g fill="#000000" fill-opacity="1"><g transform="translate(105.595994, 30.985569)"><g><path d="M 1.078125 -26.734375 L 6.65625 -26.734375 L 6.65625 -20.421875 C 7.226562 -22.066406 8.332031 -22.890625 9.96875 -22.890625 C 11.488281 -22.890625 12.640625 -22.40625 13.421875 -21.4375 C 14.210938 -20.46875 14.609375 -19.140625 14.609375 -17.453125 L 14.609375 0 L 9.1875 0 L 9.1875 -17.109375 C 9.1875 -17.597656 9.070312 -18 8.84375 -18.3125 C 8.613281 -18.625 8.285156 -18.78125 7.859375 -18.78125 C 7.484375 -18.78125 7.1875 -18.617188 6.96875 -18.296875 C 6.757812 -17.972656 6.65625 -17.585938 6.65625 -17.140625 L 6.65625 0 L 1.078125 0 Z M 1.078125 -26.734375 "/></g></g></g><g fill="#000000" fill-opacity="1"><g transform="translate(119.978293, 30.985569)"><g><path d="M 5.4375 0.25 C 3.75 0.25 2.585938 -0.253906 1.953125 -1.265625 C 1.328125 -2.273438 1.015625 -3.78125 1.015625 -5.78125 L 1.015625 -22.640625 L 6.46875 -22.640625 L 6.46875 -6.875 C 6.46875 -6.726562 6.46875 -6.335938 6.46875 -5.703125 C 6.46875 -5.078125 6.5625 -4.632812 6.75 -4.375 C 6.945312 -4.113281 7.253906 -3.984375 7.671875 -3.984375 C 8.222656 -3.984375 8.570312 -4.21875 8.71875 -4.6875 C 8.863281 -5.15625 8.9375 -5.820312 8.9375 -6.6875 L 8.9375 -6.875 L 8.96875 -22.640625 L 14.359375 -22.640625 L 14.359375 0 L 8.9375 0 L 8.9375 -2.40625 C 8.570312 -1.457031 8.140625 -0.773438 7.640625 -0.359375 C 7.148438 0.046875 6.414062 0.25 5.4375 0.25 Z M 5.4375 0.25 "/></g></g></g><g fill="#000000" fill-opacity="1"><g transform="translate(134.175014, 30.985569)"><g><path d="M 1.078125 -22.640625 L 6.5 -22.640625 L 6.5 -19.765625 C 6.726562 -20.691406 7.117188 -21.441406 7.671875 -22.015625 C 8.222656 -22.597656 8.96875 -22.890625 9.90625 -22.890625 C 11.425781 -22.890625 12.550781 -22.421875 13.28125 -21.484375 C 14.019531 -20.546875 14.390625 -19.210938 14.390625 -17.484375 L 14.390625 0 L 9.0625 0 L 9.0625 -16.921875 C 9.0625 -17.421875 8.960938 -17.84375 8.765625 -18.1875 C 8.578125 -18.539062 8.273438 -18.71875 7.859375 -18.71875 C 7.296875 -18.71875 6.925781 -18.460938 6.75 -17.953125 C 6.582031 -17.453125 6.5 -16.78125 6.5 -15.9375 L 6.5 0 L 1.078125 0 Z M 1.078125 -22.640625 "/></g></g></g><g fill="#000000" fill-opacity="1"><g transform="translate(148.371736, 30.985569)"><g><path d="M 5.75 0.25 C 4.332031 0.25 3.351562 -0.046875 2.8125 -0.640625 C 2.28125 -1.242188 2.015625 -2.207031 2.015625 -3.53125 L 2.015625 -17.671875 L 0.5 -17.671875 L 0.5 -21.78125 L 2.015625 -21.78125 L 2.015625 -26.578125 L 7.265625 -26.578125 L 7.265625 -21.78125 L 8.8125 -21.78125 L 8.8125 -17.671875 L 7.265625 -17.671875 L 7.265625 -4.953125 C 7.265625 -4.554688 7.296875 -4.265625 7.359375 -4.078125 C 7.421875 -3.898438 7.585938 -3.8125 7.859375 -3.8125 C 8.066406 -3.8125 8.257812 -3.816406 8.4375 -3.828125 C 8.625 -3.847656 8.75 -3.859375 8.8125 -3.859375 L 8.8125 -0.15625 C 8.507812 -0.0703125 8.0625 0.015625 7.46875 0.109375 C 6.882812 0.203125 6.3125 0.25 5.75 0.25 Z M 5.75 0.25 "/></g></g></g></svg>